<?xml version="1.0" encoding="UTF-8"?><svg id="Layer_1" xmlns="http://www.w3.org/2000/svg" viewBox="0 0 20 20"><defs><style>.cls-1{fill:none;stroke:#231f20;stroke-miterlimit:10;}</style></defs><g><g><path class="cls-1" d="m4.98,9.79c-.03,2.79,2.28,5.06,5,5"/><path class="cls-1" d="m14.98,9.79c.03-2.79-2.28-5.06-5-5"/><circle class="cls-1" cx="5" cy="5.31" r=".44"/><path class="cls-1" d="m9.98,14.79c2.79.03,5.06-2.28,5-5"/></g><circle class="cls-1" cx="5" cy="5.31" r="1.84"/></g><g><path class="cls-1" d="m10,4.97c2.74,0,5,2.26,5,5s-2.26,5-5,5"/><path class="cls-1" d="m15,9.97c0,2.74-2.26,5-5,5s-5-2.26-5-5"/><circle class="cls-1" cx="8.79" cy="4.96" r="1.29"/><circle class="cls-1" cx="5" cy="8.96" r="1.13"/></g></svg>