<?xml version="1.0" encoding="UTF-8"?><svg id="Layer_1" xmlns="http://www.w3.org/2000/svg" viewBox="0 0 30 30"><defs><style>.cls-1{fill:none;stroke:#231f20;stroke-miterlimit:10;}</style></defs><g><path class="cls-1" d="m5.03,14.89c-.06,5.53,4.52,10.03,9.91,9.91"/><path class="cls-1" d="m24.85,14.89c.06-5.53-4.52-10.03-9.91-9.91"/><circle class="cls-1" cx="8.01" cy="7.95" r=".99"/><circle class="cls-1" cx="8.01" cy="7.95" r="2.65"/><path class="cls-1" d="m14.94,24.79c5.53.06,10.03-4.52,9.91-9.91"/></g><g><path class="cls-1" d="m15,4.98c5.49,0,10,4.51,10,10s-4.51,10-10,10"/><path class="cls-1" d="m25,14.97c0,5.49-4.51,10-10,10s-10-4.51-10-10"/><circle class="cls-1" cx="13.5" cy="4.98" r="1.5"/><circle class="cls-1" cx="5" cy="13.47" r="1.5"/></g></svg>