<?xml version="1.0" encoding="UTF-8"?><svg id="Layer_1" xmlns="http://www.w3.org/2000/svg" viewBox="0 0 40 40"><defs><style>.cls-1{fill:none;stroke:#231f20;stroke-miterlimit:10;}</style></defs><g><path class="cls-1" d="m5.01,19.99c-.09,8.35,6.84,15.16,14.97,14.97"/><path class="cls-1" d="m34.96,19.99c.09-8.35-6.84-15.16-14.97-14.97"/><path class="cls-1" d="m19.99,34.97c8.35.09,15.16-6.84,14.97-14.97"/><circle class="cls-1" cx="9.51" cy="9.51" r="1.5"/><circle class="cls-1" cx="9.51" cy="9.51" r="3.5"/></g><g><path class="cls-1" d="m20.01,4.98c8.23,0,15,6.77,15,15s-6.77,15-15,15"/><path class="cls-1" d="m35.01,19.98c0,8.23-6.77,15-15,15s-15-6.77-15-15"/><circle class="cls-1" cx="18.51" cy="4.98" r="1.5"/><circle class="cls-1" cx="5.01" cy="18.48" r="1.5"/></g></svg>