<?xml version="1.0" encoding="UTF-8"?><svg id="Layer_1" xmlns="http://www.w3.org/2000/svg" viewBox="0 0 60 60"><defs><style>.cls-1{fill:none;stroke:#231f20;stroke-miterlimit:10;}</style></defs><g><path class="cls-1" d="m5,30c-.16,13.93,11.4,25.27,24.97,24.97"/><path class="cls-1" d="m54.94,30.01c.16-13.93-11.4-25.27-24.97-24.97"/><path class="cls-1" d="m29.97,54.97c13.93.16,25.27-11.4,24.97-24.97"/><circle class="cls-1" cx="12.49" cy="12.52" r="1.5"/><circle class="cls-1" cx="12.49" cy="12.52" r="3.5"/></g><g><path class="cls-1" d="m29.98,4.96c13.72,0,25.01,11.29,25.01,25.01s-11.29,25.01-25.01,25.01"/><path class="cls-1" d="m54.98,29.97c0,13.72-11.29,25.01-25.01,25.01S4.97,43.69,4.97,29.97"/><circle class="cls-1" cx="28.68" cy="4.97" r="1.5"/><circle class="cls-1" cx="5" cy="28.47" r="1.5"/></g></svg>