<?xml version="1.0" encoding="UTF-8"?><svg id="Layer_1" xmlns="http://www.w3.org/2000/svg" viewBox="0 0 70 70"><defs><style>.cls-1{fill:none;stroke:#231f20;stroke-miterlimit:10;}</style></defs><g><path class="cls-1" d="m4.79,34.82c-.19,16.71,13.68,30.32,29.95,29.95"/><path class="cls-1" d="m64.69,34.83c.19-16.71-13.68-30.32-29.95-29.95"/><path class="cls-1" d="m34.74,64.77c16.71.19,30.32-13.68,29.95-29.95"/><circle class="cls-1" cx="13.77" cy="13.84" r="1.5"/><circle class="cls-1" cx="13.77" cy="13.84" r="3.5"/></g><g><path class="cls-1" d="m34.98,4.92c16.47,0,30.02,13.55,30.02,30.02s-13.55,30.02-30.02,30.02"/><path class="cls-1" d="m65,34.94c0,16.47-13.55,30.02-30.02,30.02S4.95,51.42,4.95,34.94"/></g><circle class="cls-1" cx="33.71" cy="4.92" r="1.5"/><circle class="cls-1" cx="5" cy="33.74" r="1.5"/></svg>