<?xml version="1.0" encoding="UTF-8"?><svg id="Layer_1" xmlns="http://www.w3.org/2000/svg" viewBox="0 0 30 30"><defs><style>.cls-1{fill:none;stroke:#231f20;stroke-miterlimit:10;}</style></defs><g><path class="cls-1" d="m5.37,16.15c-.06,5.58,4.57,10.12,10,10"/><path class="cls-1" d="m25.37,16.16c.06-5.58-4.57-10.12-10-10"/><path class="cls-1" d="m15.37,26.16c5.58.06,10.12-4.57,10-10"/><circle class="cls-1" cx="8.37" cy="9.15" r="1"/></g><g><path class="cls-1" d="m15.37,6.16c5.49,0,10,4.51,10,10s-4.51,10-10,10"/><path class="cls-1" d="m25.37,16.15c0,5.49-4.51,10-10,10-5.49,0-10-4.51-10-10"/><line class="cls-1" x1="15.37" y1="8.66" x2="15.37" y2="3.66"/><line class="cls-1" x1="2.87" y1="16.19" x2="7.87" y2="16.19"/></g></svg>