<?xml version="1.0" encoding="UTF-8"?><svg id="Layer_1" xmlns="http://www.w3.org/2000/svg" viewBox="0 0 40 40"><defs><style>.cls-1{fill:none;stroke:#231f20;stroke-miterlimit:10;}</style></defs><g><path class="cls-1" d="m5.39,21.02c-.09,8.36,6.84,15.16,14.98,14.98"/><path class="cls-1" d="m35.34,21.02c.09-8.36-6.84-15.16-14.98-14.98"/><path class="cls-1" d="m20.36,36c8.36.09,15.16-6.84,14.98-14.98"/><circle class="cls-1" cx="9.88" cy="10.53" r="1.5"/></g><g><path class="cls-1" d="m20.38,6.16c8.23,0,15,6.77,15,15s-6.77,15-15,15"/><line class="cls-1" x1="20.38" y1="8.65" x2="20.38" y2="3.65"/><line class="cls-1" x1="2.89" y1="21.19" x2="7.89" y2="21.19"/><path class="cls-1" d="m35.38,21.16c0,8.23-6.77,15-15,15-8.23,0-15-6.77-15-15"/></g></svg>