<?xml version="1.0" encoding="UTF-8"?><svg id="Layer_1" xmlns="http://www.w3.org/2000/svg" viewBox="0 0 20 20"><defs><style>.cls-1{fill:none;stroke:#231f20;stroke-miterlimit:10;}</style></defs><g><g><path class="cls-1" d="m5.38,9.93c-.03,2.79,2.28,5.06,5,5"/><path class="cls-1" d="m15.38,9.93c.03-2.79-2.28-5.06-5-5"/><circle class="cls-1" cx="6.88" cy="6.42" r=".5"/><path class="cls-1" d="m10.38,14.93c2.79.03,5.06-2.28,5-5"/></g><circle class="cls-1" cx="6.88" cy="6.42" r="2.15"/></g><g><path class="cls-1" d="m10.17,5.39c2.74,0,5,2.26,5,5s-2.26,5-5,5"/><line class="cls-1" x1="10.17" y1="7.89" x2="10.17" y2="2.89"/><line class="cls-1" x1="2.67" y1="10.39" x2="7.67" y2="10.39"/><path class="cls-1" d="m15.17,10.39c0,2.74-2.26,5-5,5s-5-2.26-5-5"/></g></svg>