<?xml version="1.0" encoding="UTF-8"?><svg id="Layer_1" xmlns="http://www.w3.org/2000/svg" viewBox="0 0 60 60"><defs><style>.cls-1{fill:none;stroke:#231f20;stroke-miterlimit:10;}</style></defs><g><path class="cls-1" d="m5.29,29.75c-.16,13.93,11.4,25.27,24.97,24.97"/><path class="cls-1" d="m55.23,29.75c.16-13.93-11.4-25.27-24.97-24.97"/><path class="cls-1" d="m30.26,54.72c13.93.16,25.27-11.4,24.97-24.97"/><circle class="cls-1" cx="12.78" cy="12.26" r="1.5"/><circle class="cls-1" cx="12.78" cy="12.26" r="3.5"/></g><g><path class="cls-1" d="m30.14,5.38c13.72,0,25.01,11.29,25.01,25.01s-11.29,25.01-25.01,25.01"/><line class="cls-1" x1="30.17" y1="7.89" x2="30.17" y2="2.9"/><line class="cls-1" x1="2.64" y1="30.43" x2="7.64" y2="30.43"/><path class="cls-1" d="m55.15,30.39c0,13.72-11.29,25.01-25.01,25.01S5.14,44.11,5.14,30.39"/></g></svg>