<?xml version="1.0" encoding="UTF-8"?><svg id="Layer_1" xmlns="http://www.w3.org/2000/svg" viewBox="0 0 30 30"><defs><style>.cls-1{fill:none;stroke:#231f20;stroke-miterlimit:10;}</style></defs><g><path class="cls-1" d="m5.47,14.93c-.06,5.53,4.52,10.03,9.91,9.91"/><path class="cls-1" d="m25.29,14.93c.06-5.53-4.52-10.03-9.91-9.91"/><circle class="cls-1" cx="8.44" cy="7.99" r=".99"/><circle class="cls-1" cx="8.44" cy="7.99" r="2.65"/><path class="cls-1" d="m15.38,24.84c5.53.06,10.03-4.52,9.91-9.91"/></g><g><path class="cls-1" d="m15.17,5.4c5.49,0,10,4.51,10,10s-4.51,10-10,10"/><path class="cls-1" d="m25.17,15.39c0,5.49-4.51,10-10,10s-10-4.51-10-10"/><line class="cls-1" x1="15.17" y1="7.9" x2="15.17" y2="2.9"/><line class="cls-1" x1="2.67" y1="15.43" x2="7.67" y2="15.43"/></g></svg>