<?xml version="1.0" encoding="UTF-8"?><svg id="Layer_1" xmlns="http://www.w3.org/2000/svg" viewBox="0 0 40 40"><defs><style>.cls-1{fill:none;stroke:#231f20;stroke-miterlimit:10;}</style></defs><g><path class="cls-1" d="m5.44,19.93c-.09,8.35,6.84,15.16,14.97,14.97"/><path class="cls-1" d="m35.39,19.93c.09-8.35-6.84-15.16-14.97-14.97"/><path class="cls-1" d="m20.41,34.9c8.35.09,15.16-6.84,14.97-14.97"/><circle class="cls-1" cx="9.93" cy="9.44" r="1.5"/><circle class="cls-1" cx="9.93" cy="9.44" r="3.5"/></g><g><path class="cls-1" d="m20.18,5.4c8.23,0,15,6.77,15,15s-6.77,15-15,15"/><line class="cls-1" x1="20.18" y1="7.89" x2="20.18" y2="2.89"/><line class="cls-1" x1="2.68" y1="20.43" x2="7.68" y2="20.43"/><path class="cls-1" d="m35.18,20.39c0,8.23-6.77,15-15,15s-15-6.77-15-15"/></g></svg>