<?xml version="1.0" encoding="UTF-8"?><svg id="Layer_1" xmlns="http://www.w3.org/2000/svg" viewBox="0 0 70 70"><defs><style>.cls-1{fill:none;stroke:#231f20;stroke-miterlimit:10;}</style></defs><g><path class="cls-1" d="m5.28,35.04c-.19,16.71,13.68,30.32,29.95,29.95"/><path class="cls-1" d="m65.19,35.05c.19-16.71-13.68-30.32-29.95-29.95"/><path class="cls-1" d="m35.23,65c16.71.19,30.32-13.68,29.95-29.95"/><circle class="cls-1" cx="14.27" cy="14.07" r="1.5"/><circle class="cls-1" cx="14.27" cy="14.07" r="3.5"/></g><g><path class="cls-1" d="m35.14,5.34c16.47,0,30.02,13.55,30.02,30.02s-13.55,30.02-30.02,30.02"/><line class="cls-1" x1="35.18" y1="7.84" x2="35.18" y2="2.84"/><line class="cls-1" x1="2.62" y1="35.36" x2="7.62" y2="35.36"/><path class="cls-1" d="m65.17,35.36c0,16.47-13.55,30.02-30.02,30.02S5.12,51.83,5.12,35.36"/></g></svg>