<?xml version="1.0" encoding="UTF-8"?><svg id="Layer_1" xmlns="http://www.w3.org/2000/svg" viewBox="0 0 40 40"><defs><style>.cls-1{fill:#231f20;}.cls-2{fill:none;stroke:#231f20;stroke-miterlimit:10;}</style></defs><circle class="cls-2" cx="20" cy="20" r="15"/><path class="cls-2" d="m14.32,19.82c0-6.48,4.16-11.97,9.95-14-1.4-.44-2.88-.67-4.42-.67-8.2,0-14.85,6.65-14.85,14.85s6.65,14.85,14.85,14.85c1.72,0,3.37-.31,4.9-.85-6.04-1.88-10.42-7.52-10.42-14.18Z"/><polyline class="cls-2" points="33.37 15.31 33.06 14.02 32.08 16.17 30.11 14.86 30.33 17.21 27.62 17.79 29.2 20.06 27.69 22.38 30.41 22.87 30.3 25.25 32.25 23.88 33.38 25.98 33.67 24.58"/><circle class="cls-2" cx="20" cy="20" r="5.67"/><path class="cls-1" d="m19.99,20c0-.94.61-1.73,1.45-2.03-.22-.08-.46-.13-.71-.13-1.19,0-2.15.96-2.15,2.15s.96,2.15,2.15,2.15c.25,0,.49-.05.71-.13-.84-.29-1.45-1.09-1.45-2.03Z"/><path class="cls-1" d="m32.48,22.15l-.19-.62c-.2-.65-.65-1.2-1.25-1.53h0s0,0,0,0c.6-.33,1.05-.88,1.25-1.53l.2-.63.2.63c.2.65.65,1.2,1.25,1.53h0s0,0,0,0c-.6.33-1.05.87-1.25,1.53l-.19.62Z"/><circle class="cls-2" cx="9.75" cy="20" r="1.54"/><circle class="cls-2" cx="9.75" cy="20" r=".07"/></svg>