<?xml version="1.0" encoding="UTF-8"?><svg id="Layer_1" xmlns="http://www.w3.org/2000/svg" viewBox="0 0 20 20"><defs><style>.cls-1{fill:none;stroke:#231f20;stroke-miterlimit:10;}</style></defs><g><g><path class="cls-1" d="m5,9.91c-.03,2.79,2.28,5.06,5,5"/><path class="cls-1" d="m15,9.91c.03-2.79-2.28-5.06-5-5"/><circle class="cls-1" cx="6.63" cy="6.48" r="2"/></g><path class="cls-1" d="m14.8,11.29c1.17-4.06-2.91-7.46-6.73-6"/><path class="cls-1" d="m5.57,7.61c-2.09,4.04,2.07,8.55,6.27,6.93"/></g><g><g><path class="cls-1" d="m15.14,10c.03-2.79-2.28-5.06-5-5"/><path class="cls-1" d="m5.14,10c-.03,2.79,2.28,5.06,5,5"/><circle class="cls-1" cx="13.51" cy="13.42" r="2"/></g><path class="cls-1" d="m5.49,8.18c-1.61,4.14,2.56,7.97,6.58,6.44"/><path class="cls-1" d="m14.57,12.3c2.09-4.04-2.07-8.55-6.27-6.93"/></g></svg>