<?xml version="1.0" encoding="UTF-8"?><svg id="Layer_1" xmlns="http://www.w3.org/2000/svg" viewBox="0 0 30 30"><defs><style>.cls-1{fill:none;stroke:#231f20;stroke-miterlimit:10;}</style></defs><g><g><path class="cls-1" d="m5,15.01c-.06,5.57,4.57,10.11,10,9.99"/><path class="cls-1" d="m25,15.01c.06-5.57-4.57-10.11-10-9.99"/><path class="cls-1" d="m23.99,19.49c.69-1.39,1.04-2.93,1.01-4.48"/><path class="cls-1" d="m15,25c1.89.02,3.76-.51,5.36-1.51"/><circle class="cls-1" cx="7.57" cy="8.36" r="2"/></g><path class="cls-1" d="m23.93,19.5C28.52,10.44,16.94.28,8.89,7.11"/><path class="cls-1" d="m6.51,9.75C.24,18.54,12.29,29.01,20.68,23.21"/></g><g><g><path class="cls-1" d="m25,14.99c.06-5.57-4.57-10.11-10-9.99"/><path class="cls-1" d="m5,14.99c-.06,5.57,4.57,10.11,10,9.99"/><path class="cls-1" d="m6.15,10.25c-.78,1.45-1.18,3.09-1.15,4.74"/><path class="cls-1" d="m15,5c-2.15-.02-4.28.68-6.01,1.96"/><circle class="cls-1" cx="22.43" cy="21.64" r="2"/></g><path class="cls-1" d="m6.09,10.48c-4.58,8.93,7.11,19.14,15.03,12.41"/><path class="cls-1" d="m23.5,20.25C29.83,11.39,17.13.82,8.94,7.07"/></g></svg>