<?xml version="1.0" encoding="UTF-8"?><svg id="Layer_1" xmlns="http://www.w3.org/2000/svg" viewBox="0 0 40 40"><defs><style>.cls-1{fill:none;stroke:#231f20;stroke-miterlimit:10;}</style></defs><g><g><path class="cls-1" d="m5.18,20.01c-.09,8.29,6.8,15.03,14.89,14.85"/><path class="cls-1" d="m34.96,20.01c.09-8.29-6.8-15.03-14.89-14.85"/><path class="cls-1" d="m32.19,28.75c1.84-2.53,2.84-5.61,2.77-8.74"/><path class="cls-1" d="m20.07,34.86c3.34.04,6.62-1.09,9.25-3.14"/><circle class="cls-1" cx="9.52" cy="9.61" r="1.99"/></g><path class="cls-1" d="m32.24,28.75C41.91,15.21,23.62-2.56,10.73,8.44"/><path class="cls-1" d="m8.27,10.99c-10.77,13.3,7.53,31.09,20.85,20.97"/></g><g><g><path class="cls-1" d="m34.81,20.07c.09-8.33-6.79-15.11-14.87-14.93"/><path class="cls-1" d="m5.06,20.07c-.09,8.33,6.79,15.11,14.87,14.93"/><path class="cls-1" d="m8.1,10.91c-2.01,2.6-3.11,5.85-3.04,9.16"/><path class="cls-1" d="m19.94,5.14c-3.18-.03-6.31.99-8.87,2.88"/><ellipse class="cls-1" cx="30.48" cy="30.52" rx="1.99" ry="2"/></g><path class="cls-1" d="m8.05,10.92c-10.23,13.52,8.16,32,21.22,20.78"/><path class="cls-1" d="m31.72,29.14C42.32,15.95,24.65-1.85,11.26,7.79"/></g></svg>