<?xml version="1.0" encoding="UTF-8"?><svg id="Layer_1" xmlns="http://www.w3.org/2000/svg" viewBox="0 0 50 50"><defs><style>.cls-1{fill:none;stroke:#231f20;stroke-miterlimit:10;}</style></defs><g><g><path class="cls-1" d="m5.02,24.96c-.13,11.13,9.13,20.18,20,19.94"/><path class="cls-1" d="m45.01,24.96c.13-11.13-9.13-20.18-20-19.94"/><path class="cls-1" d="m40.96,37.14c2.68-3.47,4.15-7.79,4.05-12.18"/><path class="cls-1" d="m25.01,44.9c4.62.05,9.16-1.55,12.73-4.47"/><ellipse class="cls-1" cx="10.71" cy="10.92" rx="2" ry="1.99"/></g><path class="cls-1" d="m40.82,37.16c5.94-7.63,5.42-18.77-1.19-25.83-7.2-7.69-19.54-8.4-27.58-1.56"/><path class="cls-1" d="m9.64,12.19c-6.82,8.16-5.87,20.59,2.06,27.64,7.36,6.55,18.76,6.68,26.27.3"/></g><g><g><path class="cls-1" d="m45.01,24.95c.13-11.13-9.13-20.18-20-19.94"/><path class="cls-1" d="m5.02,24.94c-.13,11.13,9.13,20.18,20,19.94"/><path class="cls-1" d="m9.36,12.4c-2.85,3.52-4.44,8-4.34,12.54"/><path class="cls-1" d="m25.02,5c-4.46-.05-8.85,1.44-12.37,4.18"/><ellipse class="cls-1" cx="39.32" cy="38.99" rx="2" ry="1.99"/></g><path class="cls-1" d="m9.49,12.39c-6.17,7.56-5.84,18.82.75,26.02,7.17,7.84,19.63,8.63,27.74,1.73"/><path class="cls-1" d="m40.38,37.72c6.71-8.03,5.92-20.22-1.72-27.33-7.08-6.6-18.24-7.11-25.9-1.19"/></g></svg>