<?xml version="1.0" encoding="UTF-8"?><svg id="Layer_1" xmlns="http://www.w3.org/2000/svg" viewBox="0 0 60 60"><defs><style>.cls-1{fill:none;stroke:#231f20;stroke-miterlimit:10;}</style></defs><g><g><path class="cls-1" d="m5,29.9c-.16,13.95,11.41,25.3,25,25"/><path class="cls-1" d="m49.68,45.49c3.5-4.4,5.44-9.95,5.32-15.59"/><path class="cls-1" d="m30,54.9c5.72.06,11.34-1.91,15.79-5.5"/><path class="cls-1" d="m55,29.91c.16-13.95-11.41-25.3-25-25"/><circle class="cls-1" cx="12.39" cy="12.17" r="2"/></g><path class="cls-1" d="m49.51,45.52c12.45-15.54,1.84-39.44-18.04-40.59-6.22-.36-12.42,1.64-17.25,5.57"/><path class="cls-1" d="m11.03,13.61c-14.03,16.39-1.26,42.29,20.19,41.25,5.24-.25,10.32-2.18,14.41-5.46"/></g><g><g><path class="cls-1" d="m55,29.89c.16-13.95-11.41-25.3-25-25"/><path class="cls-1" d="m10.32,14.3c-3.5,4.4-5.44,9.95-5.32,15.59"/><path class="cls-1" d="m30,4.89c-6.03-.06-11.95,2.13-16.5,6.09"/><path class="cls-1" d="m5,29.88c-.16,13.95,11.41,25.3,25,25"/><circle class="cls-1" cx="47.61" cy="47.62" r="2"/></g><path class="cls-1" d="m10.78,13.91c-12.79,15.38-2.45,39.58,17.51,40.93,6.3.43,12.6-1.57,17.49-5.56"/><path class="cls-1" d="m48.97,46.18c14.26-16.64.82-42.89-20.92-41.2-5.29.41-10.37,2.53-14.39,6"/></g></svg>