<?xml version="1.0" encoding="UTF-8"?><svg id="Layer_1" xmlns="http://www.w3.org/2000/svg" viewBox="0 0 70 70"><defs><style>.cls-1{fill:none;stroke:#231f20;stroke-miterlimit:10;}</style></defs><g><g><path class="cls-1" d="m5,35.01c-.19,16.8,13.75,30.47,30.1,30.11"/><path class="cls-1" d="m65.1,35.02c.19-16.8-13.75-30.47-30.1-30.11"/><circle class="cls-1" cx="13.94" cy="13.55" r="2"/><path class="cls-1" d="m58.2,54.4c4.53-5.39,7.07-12.33,6.91-19.39"/><path class="cls-1" d="m35,65.12c7.15.08,14.18-2.49,19.63-7.12"/></g><path class="cls-1" d="m57.61,54.6c16.31-18.69,3.13-48.89-21.63-49.7-7.63-.25-15.17,2.48-20.88,7.54"/><path class="cls-1" d="m12.86,14.65c-18.08,19.79-1.96,52.27,24.58,50.14,6.36-.51,12.47-3.09,17.28-7.29"/></g><g><g><path class="cls-1" d="m5.01,34.99c-.19,16.8,13.82,30.47,30.26,30.11"/><ellipse class="cls-1" cx="56.45" cy="56.46" rx="2.01" ry="2"/><path class="cls-1" d="m12.25,15.26c-4.74,5.44-7.4,12.52-7.24,19.74"/><path class="cls-1" d="m35.27,4.89c-7.19-.08-14.26,2.49-19.73,7.12"/></g><path class="cls-1" d="m11.87,15.71c-15.1,17.48-3.79,46.28,19.34,49.17,8.64,1.08,17.55-1.63,24.07-7.32"/><path class="cls-1" d="m57.53,55.36c16.02-17.44,4.75-47.44-18.93-50.06-8.28-.92-16.76,1.72-23.06,7.13"/></g></svg>