<?xml version="1.0" encoding="UTF-8"?><svg id="Layer_1" xmlns="http://www.w3.org/2000/svg" viewBox="0 0 20 20"><defs><style>.cls-1{fill:none;stroke:#231f20;stroke-miterlimit:10;}</style></defs><g><g><path class="cls-1" d="m5,10.04c-.01,1.26.46,2.48,1.31,3.41"/><path class="cls-1" d="m13.98,6.98c-.95-1.22-2.42-1.97-3.98-1.94"/><circle class="cls-1" cx="6.63" cy="6.62" r="2"/><path class="cls-1" d="m11.38,14.85c1.64-.48,2.96-1.78,3.44-3.42"/></g><path class="cls-1" d="m13.98,6.99c-1.4-1.85-3.78-2.38-5.91-1.57"/><path class="cls-1" d="m11.35,14.78c1.72-.36,2.97-1.7,3.45-3.36"/><path class="cls-1" d="m5.57,7.74c-1.08,2.02-.69,4.4,1.11,5.85"/></g><g><g><path class="cls-1" d="m12.5,14.39c1.29-.74,2.18-2.02,2.45-3.48"/><path class="cls-1" d="m5.14,8.79c-.33,1.28-.15,2.64.53,3.77"/><circle class="cls-1" cx="8.72" cy="14.69" r="2"/><path class="cls-1" d="m14.09,7.17c-1.19-1.66-3.3-2.45-5.29-1.97"/></g><path class="cls-1" d="m5.28,8.79c-.68,1.96.12,3.97,1.69,5.25"/><path class="cls-1" d="m14.05,7.17c-1.28-1.83-3.51-2.61-5.6-1.72"/><path class="cls-1" d="m10.23,15.04c2.25-.1,4.15-1.71,4.64-3.9"/></g><g><g><path class="cls-1" d="m12.41,5.71c-1.22-.71-2.7-.87-4.04-.45"/><path class="cls-1" d="m11.87,14.66c1-.43,1.83-1.17,2.36-2.12"/><circle class="cls-1" cx="14.55" cy="8.83" r="2"/><path class="cls-1" d="m5.17,8.41c-.61,1.76-.15,3.76,1.13,5.11"/></g><path class="cls-1" d="m11.77,14.58c1.72-.59,2.82-2.14,3.1-3.91"/><path class="cls-1" d="m5.2,8.42c-.65,1.85-.25,3.9,1.3,5.17"/><path class="cls-1" d="m14.11,7.35c-1.19-1.9-3.57-2.74-5.7-2.07"/></g></svg>