<?xml version="1.0" encoding="UTF-8"?><svg id="Layer_1" xmlns="http://www.w3.org/2000/svg" viewBox="0 0 30 30"><defs><style>.cls-1{fill:none;stroke:#231f20;stroke-miterlimit:10;}</style></defs><g><g><path class="cls-1" d="m5,15.04c-.04,3.61,1.97,7.01,5.11,8.78"/><path class="cls-1" d="m23.48,9.68c-1.82-2.88-5.06-4.72-8.48-4.64"/><path class="cls-1" d="m15.97,25c5.05-.44,9.14-4.87,9.03-9.96"/><circle class="cls-1" cx="7.57" cy="8.39" r="2"/></g><path class="cls-1" d="m23.48,9.71c-3.03-4.83-10.11-6.36-14.59-2.58"/><path class="cls-1" d="m15.95,24.96c5.17-.55,9.27-5.21,9.03-10.43"/><path class="cls-1" d="m6.51,9.78c-3.29,4.69-1.02,11.29,3.73,14.01"/></g><g><g><path class="cls-1" d="m20,23.67c3.32-1.87,5.29-5.6,5.02-9.4"/><path class="cls-1" d="m6.19,10.21c-1.66,3.04-1.65,6.83.15,9.8"/><path class="cls-1" d="m23.66,10.01c-2.74-4.86-9.01-6.48-13.66-3.66"/><circle class="cls-1" cx="12.95" cy="24.78" r="2"/></g><path class="cls-1" d="m6.17,10.33c-2.59,5.06-.48,11.93,5.04,13.93"/><path class="cls-1" d="m23.64,10.02c-2.87-4.95-9.68-6.42-14.38-3.19"/><path class="cls-1" d="m14.69,25c5.97.53,10.8-5.29,10.25-10.99"/></g><g><g><path class="cls-1" d="m19.91,6.34c-3.38-2-7.74-1.77-10.92.54"/><path class="cls-1" d="m15.31,25.03c3.4-.14,6.61-2.02,8.26-5.03"/><path class="cls-1" d="m6.25,10c-2.84,4.8-1.11,11.05,3.66,13.66"/><circle class="cls-1" cx="24.39" cy="11.89" r="2"/></g><path class="cls-1" d="m15.56,24.96c5.55-.45,10.31-5.61,9.26-11.3"/><path class="cls-1" d="m6.27,10.01c-2.84,4.95-.75,11.55,4.37,14.03"/><path class="cls-1" d="m23.72,10.27c-2.52-5.42-9.98-6.72-14.64-3.38"/></g></svg>