<?xml version="1.0" encoding="UTF-8"?><svg id="Layer_1" xmlns="http://www.w3.org/2000/svg" viewBox="0 0 40 40"><defs><style>.cls-1{fill:none;stroke:#231f20;stroke-miterlimit:10;}</style></defs><g><g><path class="cls-1" d="m5.01,19.95c-.06,5.74,3.36,11.12,8.55,13.57"/><path class="cls-1" d="m33.9,14.3c-2.27-5.57-7.86-9.41-13.91-9.28"/><path class="cls-1" d="m19.99,34.88c8.36.09,15.16-6.82,14.98-14.93"/><circle class="cls-1" cx="9.37" cy="9.49" r="2"/></g><path class="cls-1" d="m33.79,14.11c-3.81-8.73-15.77-12.14-23.2-5.79"/><path class="cls-1" d="m19.64,35.01c8.56.15,15.9-7.37,15.34-15.96"/><path class="cls-1" d="m8.12,10.88c-5.87,7.22-2.85,18.5,5.28,22.59"/></g><g><g><path class="cls-1" d="m27.45,33.04c4.91-2.76,7.84-8.25,7.5-13.86"/><path class="cls-1" d="m7.63,11.51c-3.27,4.7-3.59,11.11-.6,16.03"/><path class="cls-1" d="m32.9,12.61c-4.1-7.28-13.48-9.72-20.42-5.5"/><circle class="cls-1" cx="16.22" cy="34.49" r="2"/></g><path class="cls-1" d="m7.67,11.52c-5.22,7.7-2.07,19.33,6.92,22.51"/><path class="cls-1" d="m33.63,13.73c-3.94-8.48-15.32-11.3-22.74-5.62"/><path class="cls-1" d="m18.05,34.89c9.19,1.48,17.41-6.76,16.92-15.84"/></g><g><g><path class="cls-1" d="m27.57,7.04c-5.12-3.02-11.75-2.62-16.5.97"/><path class="cls-1" d="m19.28,35c5.56.29,11.03-2.62,13.72-7.53"/><path class="cls-1" d="m7.15,12.54c-4.26,7.19-1.68,16.54,5.44,20.43"/><circle class="cls-1" cx="34.44" cy="16.04" r="2"/></g><path class="cls-1" d="m19.51,34.94c8.96.14,17.04-8.18,15.34-17.26"/><path class="cls-1" d="m7.54,11.65c-4.98,7.46-1.96,18.18,6.18,21.95"/><path class="cls-1" d="m33.87,14.26c-3.43-8.98-15.13-11.93-22.72-6.38"/></g><g><g><path class="cls-1" d="m5.01,19.95c-.06,5.74,3.36,11.12,8.55,13.57"/><path class="cls-1" d="m33.9,14.3c-2.27-5.57-7.86-9.41-13.91-9.28"/><path class="cls-1" d="m19.99,34.88c8.36.09,15.16-6.82,14.98-14.93"/><circle class="cls-1" cx="9.37" cy="9.49" r="2"/></g><path class="cls-1" d="m33.79,14.11c-3.81-8.73-15.77-12.14-23.2-5.79"/><path class="cls-1" d="m19.64,35.01c8.56.15,15.9-7.37,15.34-15.96"/><path class="cls-1" d="m8.12,10.88c-5.87,7.22-2.85,18.5,5.28,22.59"/></g><g><g><path class="cls-1" d="m27.45,33.04c4.91-2.76,7.84-8.25,7.5-13.86"/><path class="cls-1" d="m7.63,11.51c-3.27,4.7-3.59,11.11-.6,16.03"/><path class="cls-1" d="m32.9,12.61c-4.1-7.28-13.48-9.72-20.42-5.5"/><circle class="cls-1" cx="16.22" cy="34.49" r="2"/></g><path class="cls-1" d="m7.67,11.52c-5.22,7.7-2.07,19.33,6.92,22.51"/><path class="cls-1" d="m33.63,13.73c-3.94-8.48-15.32-11.3-22.74-5.62"/><path class="cls-1" d="m18.05,34.89c9.19,1.48,17.41-6.76,16.92-15.84"/></g><g><g><path class="cls-1" d="m27.57,7.04c-5.12-3.02-11.75-2.62-16.5.97"/><path class="cls-1" d="m19.28,35c5.56.29,11.03-2.62,13.72-7.53"/><path class="cls-1" d="m7.15,12.54c-4.26,7.19-1.68,16.54,5.44,20.43"/><circle class="cls-1" cx="34.44" cy="16.04" r="2"/></g><path class="cls-1" d="m19.51,34.94c8.96.14,17.04-8.18,15.34-17.26"/><path class="cls-1" d="m7.54,11.65c-4.98,7.46-1.96,18.18,6.18,21.95"/><path class="cls-1" d="m33.87,14.26c-3.43-8.98-15.13-11.93-22.72-6.38"/></g></svg>