<?xml version="1.0" encoding="UTF-8"?><svg id="Layer_1" xmlns="http://www.w3.org/2000/svg" viewBox="0 0 50 50"><defs><style>.cls-1{fill:none;stroke:#231f20;stroke-miterlimit:10;}</style></defs><g><g><path class="cls-1" d="m5.02,25.04c-.09,7.97,4.83,15.4,12.16,18.5"/><path class="cls-1" d="m43.6,17.5c-3-7.46-10.5-12.65-18.59-12.46"/><path class="cls-1" d="m25.01,45.04c11.16.13,20.24-9.13,20-20"/><circle class="cls-1" cx="10.7" cy="10.95" r="2"/></g><path class="cls-1" d="m43.57,17.56C38.54,5.1,22.32,1.07,12.05,9.81"/><path class="cls-1" d="m23.25,44.89c12.67,1.04,23.37-10.1,21.55-22.78"/><path class="cls-1" d="m9.64,12.23c-8.35,10.06-4.53,26.13,7.56,31.19"/></g><g><g><path class="cls-1" d="m35.01,42.54c6.87-3.87,10.87-11.73,9.97-19.56"/><path class="cls-1" d="m8.51,13.82c-4.36,6.28-4.8,14.83-.81,21.4"/><path class="cls-1" d="m42.33,15.22C36.86,5.5,24.3,2.26,15.01,7.9"/><circle class="cls-1" cx="19.97" cy="44.65" r="2"/></g><path class="cls-1" d="m8.7,13.63c-7.56,10.66-2.73,26.04,9.61,30.43"/><path class="cls-1" d="m43.51,17.78C38.51,5.63,22.99,1.38,12.58,9.55"/><path class="cls-1" d="m21.6,44.93c12.85,2.19,24.85-9.1,23.24-22.08"/></g><g><g><path class="cls-1" d="m35.08,7.93c-7.02-4.16-16.2-3.49-22.56,1.64"/><path class="cls-1" d="m23.58,45.25c7.58.58,15.14-3.31,18.81-10.01"/><path class="cls-1" d="m7.76,15.25c-5.69,9.6-2.21,22.09,7.32,27.32"/><circle class="cls-1" cx="44.43" cy="19.9" r="2"/></g><path class="cls-1" d="m23.43,45.12c12.92,1.04,23.67-10.66,21.32-23.49"/><path class="cls-1" d="m9.12,13.22c-7.6,10.16-3.63,25.49,8.14,30.41"/><path class="cls-1" d="m43.86,18.34C39.15,5.62,22.85,1.22,12.39,9.81"/></g><g><g><path class="cls-1" d="m5.02,25.04c-.09,7.97,4.83,15.4,12.16,18.5"/><path class="cls-1" d="m43.6,17.5c-3-7.46-10.5-12.65-18.59-12.46"/><path class="cls-1" d="m25.01,45.04c11.16.13,20.24-9.13,20-20"/><circle class="cls-1" cx="10.7" cy="10.95" r="2"/></g><path class="cls-1" d="m43.57,17.56C38.54,5.1,22.32,1.07,12.05,9.81"/><path class="cls-1" d="m23.25,44.89c12.67,1.04,23.37-10.1,21.55-22.78"/><path class="cls-1" d="m9.64,12.23c-8.35,10.06-4.53,26.13,7.56,31.19"/></g><g><g><path class="cls-1" d="m35.01,42.54c6.87-3.87,10.87-11.73,9.97-19.56"/><path class="cls-1" d="m8.51,13.82c-4.36,6.28-4.8,14.83-.81,21.4"/><path class="cls-1" d="m42.33,15.22C36.86,5.5,24.3,2.26,15.01,7.9"/><circle class="cls-1" cx="19.97" cy="44.65" r="2"/></g><path class="cls-1" d="m8.7,13.63c-7.56,10.66-2.73,26.04,9.61,30.43"/><path class="cls-1" d="m43.51,17.78C38.51,5.63,22.99,1.38,12.58,9.55"/><path class="cls-1" d="m21.6,44.93c12.85,2.19,24.85-9.1,23.24-22.08"/></g><g><g><path class="cls-1" d="m35.08,7.93c-7.02-4.16-16.2-3.49-22.56,1.64"/><path class="cls-1" d="m23.58,45.25c7.58.58,15.14-3.31,18.81-10.01"/><path class="cls-1" d="m7.76,15.25c-5.69,9.6-2.21,22.09,7.32,27.32"/><circle class="cls-1" cx="44.43" cy="19.9" r="2"/></g><path class="cls-1" d="m23.43,45.12c12.92,1.04,23.67-10.66,21.32-23.49"/><path class="cls-1" d="m9.12,13.22c-7.6,10.16-3.63,25.49,8.14,30.41"/><path class="cls-1" d="m43.86,18.34C39.15,5.62,22.85,1.22,12.39,9.81"/></g></svg>