<?xml version="1.0" encoding="UTF-8"?><svg id="Layer_1" xmlns="http://www.w3.org/2000/svg" viewBox="0 0 60 60"><defs><style>.cls-1{fill:none;stroke:#231f20;stroke-miterlimit:10;}</style></defs><g><g><path class="cls-1" d="m5,30.04c-.11,9.68,5.7,18.77,14.49,22.81"/><path class="cls-1" d="m30,55.03c13.95.16,25.3-11.41,25-25"/><path class="cls-1" d="m53.24,20.64c-3.74-9.35-13.12-15.83-23.24-15.6"/><circle class="cls-1" cx="12.39" cy="12.3" r="2"/></g><path class="cls-1" d="m53.04,20.29C46.66,5.2,26.96.26,14.22,10.64"/><path class="cls-1" d="m28.23,54.88c15.2,1,28.12-12.01,26.65-27.3"/><path class="cls-1" d="m11.03,13.74C.42,26.13,4.85,46.28,19.84,52.84"/></g><g><g><path class="cls-1" d="m42.5,51.67c8.38-4.71,13.34-14.18,12.53-23.75"/><path class="cls-1" d="m51.66,17.53C44.82,5.37,29.12,1.32,17.51,8.38"/><path class="cls-1" d="m10.1,14.78c-6.1,7.91-6.95,19.16-1.74,27.74"/><path class="cls-1" d="m17.51,8.38c-.98.55-1.91,1.16-2.81,1.84"/><circle class="cls-1" cx="23.45" cy="54.14" r="2" transform="translate(-23.93 18.98) rotate(-30)"/></g><path class="cls-1" d="m10.05,14.95C.18,28.03,5.74,47.55,21.1,53.4"/><path class="cls-1" d="m53.09,20.63C46.85,5.63,27.65.24,14.67,10.28"/><path class="cls-1" d="m25.38,54.6c15.97,3.02,31.18-10.85,29.48-27.05"/></g><g><g><path class="cls-1" d="m10.41,14.34c-.77,1-1.47,2.05-2.07,3.16"/><path class="cls-1" d="m42.48,8.35c-8.64-5.12-19.9-4.39-27.83,1.76"/><path class="cls-1" d="m8.33,17.49c-7.11,12-2.77,27.62,9.15,34.15"/><path class="cls-1" d="m27.3,54.92c9.72,1.08,19.59-3.81,24.32-12.43"/><circle class="cls-1" cx="54.14" cy="23.61" r="2" transform="translate(6.62 58.69) rotate(-60)"/></g><path class="cls-1" d="m27.13,54.76c16.19,1.81,30.15-12.53,27.55-28.73"/><path class="cls-1" d="m10.54,14.3C.58,26.71,4.99,46.09,19.55,52.68"/><path class="cls-1" d="m53.58,21.71C47.97,5.79,27.79-.05,14.54,10.34"/></g></svg>