<?xml version="1.0" encoding="UTF-8"?><svg id="Layer_1" xmlns="http://www.w3.org/2000/svg" viewBox="0 0 70 70"><defs><style>.cls-1{fill:none;stroke:#231f20;stroke-miterlimit:10;}</style></defs><g><g><path class="cls-1" d="m30.8,65.02c1.43.18,2.87.26,4.31.23"/><path class="cls-1" d="m5,35.14c-.13,11.93,7.19,23.09,18.15,27.78"/><path class="cls-1" d="m63.34,24.73c-4.25-11.72-15.8-19.96-28.34-19.69"/><path class="cls-1" d="m65.1,35.15c.01-1.31-.06-2.62-.22-3.93"/><circle class="cls-1" cx="13.94" cy="13.68" r="2"/><path class="cls-1" d="m35,65.25c16.8.19,30.47-13.75,30.11-30.1"/></g><path class="cls-1" d="m63.19,24.75C56.08,5.22,30.7-1.27,15.1,12.58"/><path class="cls-1" d="m30.39,64.58c19.61,2.93,37.17-14.11,34.3-33.91"/><path class="cls-1" d="m12.86,14.78C-.94,29.86,4.82,55.44,23.94,62.88"/></g><g><g><path class="cls-1" d="m63.03,23.81c-.55-1.3-1.19-2.56-1.92-3.77"/><path class="cls-1" d="m50.09,61.16c10.33-5.82,16.33-17.62,15.01-29.39"/><path class="cls-1" d="m11.44,16.41c-7.63,9.54-8.79,23.33-2.42,33.83"/><path class="cls-1" d="m20.04,9.11c-1.26.71-2.47,1.51-3.61,2.39"/><circle class="cls-1" cx="27.03" cy="64.16" r="2" transform="translate(-28.46 22.11) rotate(-30)"/><path class="cls-1" d="m61.16,20.13C52.93,5.49,34.02.62,20.04,9.11"/></g><path class="cls-1" d="m11.62,16.41C-1.28,32.41,5.94,57.19,25.5,63.7"/><path class="cls-1" d="m62.98,24.67C55.81,6.06,32.12-.74,16.34,11.74"/><path class="cls-1" d="m28.52,64.54c19.67,4.34,38.79-12.89,36.22-32.93"/></g><g><g><path class="cls-1" d="m11.3,16.04c-.98,1.24-1.85,2.57-2.61,3.95"/><path class="cls-1" d="m49.82,8.98c-10.58-6.27-24.38-5.24-33.96,2.46"/><path class="cls-1" d="m31.41,64.96c11.77,1.37,23.75-4.5,29.48-14.95"/><path class="cls-1" d="m19.76,61.02c1.26.74,2.57,1.4,3.92,1.95"/><circle class="cls-1" cx="63.93" cy="27.44" r="2" transform="translate(8.2 69.09) rotate(-60)"/><path class="cls-1" d="m8.74,19.9C.18,34.35,5.41,53.16,19.76,61.02"/></g><path class="cls-1" d="m31.37,64.71c19.95,2.34,37.01-15.87,32.94-35.7"/><path class="cls-1" d="m11.72,16C-.8,31.32,5.28,55.55,23.76,62.81"/><path class="cls-1" d="m63.52,25.96C57.19,5.95,31.81-1.44,15.72,11.96"/></g></svg>