<?xml version="1.0" encoding="UTF-8"?><svg id="Layer_1" xmlns="http://www.w3.org/2000/svg" viewBox="0 0 40 40"><defs><style>.cls-1{fill:none;stroke:#231f20;stroke-miterlimit:10;}</style></defs><g><path class="cls-1" d="m20.23,5.09c8.23,0,15,6.77,15,15s-6.77,15-15,15"/><path class="cls-1" d="m35.23,20.09c0,8.23-6.77,15-15,15s-15-6.77-15-15"/></g><g><path class="cls-1" d="m20.11,5.03c8.23,0,15,6.77,15,15s-6.77,15-15,15"/><path class="cls-1" d="m35.11,20.02c0,8.23-6.77,15-15,15-8.23,0-15-6.77-15-15"/></g><path class="cls-1" d="m32.51,28.47c-.98-.98-2.6-.98-3.59,0s-.98,2.6,0,3.59"/></svg>