<?xml version="1.0" encoding="UTF-8"?><svg id="Layer_1" xmlns="http://www.w3.org/2000/svg" viewBox="0 0 50 50"><defs><style>.cls-1{fill:none;stroke:#231f20;stroke-miterlimit:10;}</style></defs><g><path class="cls-1" d="m25.21,5.07c10.98,0,20.02,9.04,20.02,20.02s-9.04,20.02-20.02,20.02"/><path class="cls-1" d="m45.26,25.09c0,10.98-9.04,20.02-20.02,20.02-10.98,0-20.02-9.04-20.02-20.02"/></g><g><path class="cls-1" d="m25.08,5c10.98,0,20.02,9.04,20.02,20.02s-9.04,20.02-20.02,20.02"/><path class="cls-1" d="m45.13,25.03c0,10.98-9.04,20.02-20.02,20.02S5.08,36.01,5.08,25.02"/></g><path class="cls-1" d="m41.34,36.5c-.98-.98-2.6-.98-3.59,0s-.98,2.6,0,3.59"/></svg>