<?xml version="1.0" encoding="UTF-8"?><svg id="Layer_1" xmlns="http://www.w3.org/2000/svg" viewBox="0 0 60 60"><defs><style>.cls-1{fill:none;stroke:#231f20;stroke-miterlimit:10;}</style></defs><g><path class="cls-1" d="m30.2,5.07c13.72,0,25.01,11.29,25.01,25.01s-11.29,25.01-25.01,25.01"/><path class="cls-1" d="m55.2,30.08c0,13.72-11.29,25.01-25.01,25.01S5.19,43.8,5.19,30.08"/></g><g><path class="cls-1" d="m30.07,5.01c13.72,0,25.01,11.29,25.01,25.01s-11.29,25.01-25.01,25.01"/><path class="cls-1" d="m55.08,30.02c0,13.72-11.29,25.01-25.01,25.01S5.06,43.74,5.06,30.02"/></g><path class="cls-1" d="m49.84,44.74c-.98-.98-2.6-.98-3.59,0s-.98,2.6,0,3.59"/></svg>