<?xml version="1.0" encoding="UTF-8"?><svg id="Layer_1" xmlns="http://www.w3.org/2000/svg" viewBox="0 0 70 70"><defs><style>.cls-1{fill:none;stroke:#231f20;stroke-miterlimit:10;}</style></defs><g><path class="cls-1" d="m35.2,5.03c16.47,0,30.02,13.55,30.02,30.02s-13.55,30.02-30.02,30.02"/><path class="cls-1" d="m65.22,35.06c0,16.47-13.55,30.02-30.02,30.02S5.17,51.53,5.17,35.06"/></g><g><path class="cls-1" d="m35.07,4.97c16.47,0,30.02,13.55,30.02,30.02s-13.55,30.02-30.02,30.02"/><path class="cls-1" d="m65.1,34.99c0,16.47-13.55,30.02-30.02,30.02-16.47,0-30.02-13.55-30.02-30.02"/></g><path class="cls-1" d="m57.99,53.97c-.98-.98-2.6-.98-3.59,0s-.98,2.6,0,3.59"/></svg>