<?xml version="1.0" encoding="UTF-8"?><svg id="Layer_1" xmlns="http://www.w3.org/2000/svg" viewBox="0 0 20 20"><defs><style>.cls-1{fill:none;stroke:#231f20;stroke-miterlimit:10;}</style></defs><g><path class="cls-1" d="m10,5.08c2.74,0,5,2.26,5,5s-2.26,5-5,5"/><path class="cls-1" d="m15,10.08c0,2.74-2.26,5-5,5s-5-2.26-5-5"/></g><g><path class="cls-1" d="m9.88,5.02c2.74,0,5,2.26,5,5s-2.26,5-5,5"/><path class="cls-1" d="m14.88,10.02c0,2.74-2.26,5-5,5s-5-2.26-5-5"/></g><path class="cls-1" d="m11.32,15.27c.98.98,2.6.98,3.59,0s.98-2.6,0-3.59"/></svg>