<?xml version="1.0" encoding="UTF-8"?><svg id="Layer_1" xmlns="http://www.w3.org/2000/svg" viewBox="0 0 50 50"><defs><style>.cls-1{fill:none;stroke:#231f20;stroke-miterlimit:10;}</style></defs><g><path class="cls-1" d="m24.99,5.06c10.98,0,20.02,9.04,20.02,20.02s-9.04,20.02-20.02,20.02"/><path class="cls-1" d="m45.04,25.09c0,10.98-9.04,20.02-20.02,20.02-10.98,0-20.02-9.04-20.02-20.02"/></g><g><path class="cls-1" d="m24.87,5c10.98,0,20.02,9.04,20.02,20.02s-9.04,20.02-20.02,20.02"/><path class="cls-1" d="m44.91,25.02c0,10.98-9.04,20.02-20.02,20.02-10.98,0-20.02-9.04-20.02-20.02"/></g><path class="cls-1" d="m37.9,40.46c.98.98,2.6.98,3.59,0s.98-2.6,0-3.59"/></svg>