<?xml version="1.0" encoding="UTF-8"?><svg id="Layer_1" xmlns="http://www.w3.org/2000/svg" viewBox="0 0 60 60"><defs><style>.cls-1{fill:none;stroke:#231f20;stroke-miterlimit:10;}</style></defs><g><path class="cls-1" d="m29.98,5.07c13.72,0,25.01,11.29,25.01,25.01s-11.29,25.01-25.01,25.01"/><path class="cls-1" d="m54.98,30.08c0,13.72-11.29,25.01-25.01,25.01S4.97,43.8,4.97,30.08"/></g><g><path class="cls-1" d="m29.85,5.01c13.72,0,25.01,11.29,25.01,25.01s-11.29,25.01-25.01,25.01"/><path class="cls-1" d="m54.86,30.02c0,13.72-11.29,25.01-25.01,25.01S4.85,43.74,4.85,30.02"/></g><path class="cls-1" d="m46.4,48.38c.98.98,2.6.98,3.59,0s.98-2.6,0-3.59"/></svg>