<?xml version="1.0" encoding="UTF-8"?><svg id="Layer_1" xmlns="http://www.w3.org/2000/svg" viewBox="0 0 70 70"><defs><style>.cls-1{fill:none;stroke:#231f20;stroke-miterlimit:10;}</style></defs><g><path class="cls-1" d="m34.98,5.03c16.47,0,30.02,13.55,30.02,30.02s-13.55,30.02-30.02,30.02"/><path class="cls-1" d="m65,35.06c0,16.47-13.55,30.02-30.02,30.02S4.95,51.53,4.95,35.06"/></g><g><path class="cls-1" d="m34.85,4.97c16.47,0,30.02,13.55,30.02,30.02s-13.55,30.02-30.02,30.02"/><path class="cls-1" d="m64.88,34.99c0,16.47-13.55,30.02-30.02,30.02S4.83,51.46,4.83,34.99"/></g><path class="cls-1" d="m54.55,57.93c.98.98,2.6.98,3.59,0s.98-2.6,0-3.59"/></svg>