<?xml version="1.0" encoding="UTF-8"?><svg id="Layer_1" xmlns="http://www.w3.org/2000/svg" viewBox="0 0 20 20"><defs><style>.cls-1{fill:none;stroke:#231f20;stroke-miterlimit:10;}</style></defs><g><path class="cls-1" d="m10,4.99c2.74,0,5,2.26,5,5s-2.26,5-5,5"/><path class="cls-1" d="m15,9.98c0,2.74-2.26,5-5,5s-5-2.26-5-5"/><circle class="cls-1" cx="8.58" cy="4.98" r="1.5"/><circle class="cls-1" cx="5" cy="8.61" r="1.5"/></g><g><path class="cls-1" d="m9.88,4.92c2.74,0,5,2.26,5,5s-2.26,5-5,5"/><path class="cls-1" d="m14.88,9.92c0,2.74-2.26,5-5,5s-5-2.26-5-5"/></g><path class="cls-1" d="m14.54,11.21c-.98-.98-2.6-.98-3.59,0s-.98,2.6,0,3.59"/></svg>