<?xml version="1.0" encoding="UTF-8"?><svg id="Layer_1" xmlns="http://www.w3.org/2000/svg" viewBox="0 0 30 30"><defs><style>.cls-1{fill:none;stroke:#231f20;stroke-miterlimit:10;}</style></defs><g><path class="cls-1" d="m15,4.99c5.49,0,10,4.51,10,10s-4.51,10-10,10"/><path class="cls-1" d="m25,14.99c0,5.49-4.51,10-10,10s-10-4.51-10-10"/><circle class="cls-1" cx="13.5" cy="4.99" r="1.5"/><circle class="cls-1" cx="5" cy="13.48" r="1.5"/></g><g><path class="cls-1" d="m14.88,4.92c5.49,0,10,4.51,10,10s-4.51,10-10,10"/><path class="cls-1" d="m24.88,14.92c0,5.49-4.51,10-10,10-5.49,0-10-4.51-10-10"/></g><path class="cls-1" d="m23.44,19.53c-.98-.98-2.6-.98-3.59,0s-.98,2.6,0,3.59"/></svg>