<?xml version="1.0" encoding="UTF-8"?><svg id="Layer_1" xmlns="http://www.w3.org/2000/svg" viewBox="0 0 40 40"><defs><style>.cls-1{fill:none;stroke:#231f20;stroke-miterlimit:10;}</style></defs><g><path class="cls-1" d="m20.01,4.99c8.23,0,15,6.77,15,15s-6.77,15-15,15"/><path class="cls-1" d="m35.01,19.99c0,8.23-6.77,15-15,15s-15-6.77-15-15"/><circle class="cls-1" cx="18.51" cy="4.99" r="1.5"/><circle class="cls-1" cx="5.01" cy="18.49" r="1.5"/></g><g><path class="cls-1" d="m19.89,4.93c8.23,0,15,6.77,15,15s-6.77,15-15,15"/><path class="cls-1" d="m34.89,19.92c0,8.23-6.77,15-15,15-8.23,0-15-6.77-15-15"/></g><path class="cls-1" d="m32.29,28.37c-.98-.98-2.6-.98-3.59,0s-.98,2.6,0,3.59"/></svg>