<?xml version="1.0" encoding="UTF-8"?><svg id="Layer_1" xmlns="http://www.w3.org/2000/svg" viewBox="0 0 50 50"><defs><style>.cls-1{fill:none;stroke:#231f20;stroke-miterlimit:10;}</style></defs><g><path class="cls-1" d="m24.99,4.96c10.98,0,20.02,9.04,20.02,20.02s-9.04,20.02-20.02,20.02"/><path class="cls-1" d="m45.04,24.99c0,10.98-9.04,20.02-20.02,20.02-10.98,0-20.02-9.04-20.02-20.02"/><circle class="cls-1" cx="23.49" cy="4.98" r="1.5"/><circle class="cls-1" cx="5.01" cy="23.49" r="1.5"/></g><g><path class="cls-1" d="m24.87,4.9c10.98,0,20.02,9.04,20.02,20.02s-9.04,20.02-20.02,20.02"/><path class="cls-1" d="m44.91,24.92c0,10.98-9.04,20.02-20.02,20.02S4.87,35.91,4.87,24.92"/></g><path class="cls-1" d="m41.12,36.4c-.98-.98-2.6-.98-3.59,0s-.98,2.6,0,3.59"/></svg>