<?xml version="1.0" encoding="UTF-8"?><svg id="Layer_1" xmlns="http://www.w3.org/2000/svg" viewBox="0 0 70 70"><defs><style>.cls-1{fill:none;stroke:#231f20;stroke-miterlimit:10;}</style></defs><g><path class="cls-1" d="m34.98,4.93c16.47,0,30.02,13.55,30.02,30.02s-13.55,30.02-30.02,30.02"/><path class="cls-1" d="m65,34.96c0,16.47-13.55,30.02-30.02,30.02S4.95,51.43,4.95,34.96"/></g><circle class="cls-1" cx="33.71" cy="4.93" r="1.5"/><circle class="cls-1" cx="5" cy="33.75" r="1.5"/><g><path class="cls-1" d="m34.85,4.87c16.47,0,30.02,13.55,30.02,30.02s-13.55,30.02-30.02,30.02"/><path class="cls-1" d="m64.88,34.89c0,16.47-13.55,30.02-30.02,30.02-16.47,0-30.02-13.55-30.02-30.02"/></g><path class="cls-1" d="m57.77,53.87c-.98-.98-2.6-.98-3.59,0s-.98,2.6,0,3.59"/></svg>