<?xml version="1.0" encoding="UTF-8"?><svg id="Layer_1" xmlns="http://www.w3.org/2000/svg" viewBox="0 0 50 50"><defs><style>.cls-1{stroke-linecap:square;}.cls-1,.cls-2{fill:none;stroke:#231f20;stroke-miterlimit:10;}</style></defs><g><path class="cls-2" d="m5.02,24.89c-.13,11.16,9.13,20.24,20,20"/><path class="cls-2" d="m45.02,24.89c.13-11.16-9.13-20.24-20-20"/><path class="cls-2" d="m25.02,44.89c11.16.13,20.24-9.13,20-20"/><circle class="cls-2" cx="11.02" cy="10.89" r="2"/></g><g><path class="cls-2" d="m25,5.01c10.98,0,20.02,9.04,20.02,20.02s-9.04,20.02-20.02,20.02"/><line class="cls-1" x1="25.02" y1="4.99" x2="25.02" y2="-.01"/><line class="cls-1" x1="0" y1="25.03" x2="5.01" y2="25.03"/><path class="cls-2" d="m45.04,25.03c0,10.98-9.04,20.02-20.02,20.02-10.98,0-20.02-9.04-20.02-20.02"/></g></svg>