<?xml version="1.0" encoding="UTF-8"?><svg id="Layer_1" xmlns="http://www.w3.org/2000/svg" viewBox="0 0 50 50"><defs><style>.cls-1{stroke-linecap:square;}.cls-1,.cls-2{fill:none;stroke:#231f20;stroke-miterlimit:10;}</style></defs><g><path class="cls-2" d="m5.02,24.86c-.13,11.16,9.13,20.24,20,20"/><path class="cls-2" d="m45.02,24.86c.13-11.16-9.13-20.24-20-20"/><path class="cls-2" d="m25.02,44.86c11.16.13,20.24-9.13,20-20"/><circle class="cls-2" cx="11.02" cy="10.86" r="2"/></g><g><path class="cls-2" d="m39.34,10.88c7.77,7.77,7.72,20.4-.1,28.22s-20.45,7.86-28.22.1"/><line class="cls-2" x1="42.95" y1="42.99" x2="39.23" y2="39.28"/></g><g><path class="cls-2" d="m25,4.98c10.98,0,20.02,9.04,20.02,20.02s-9.04,20.02-20.02,20.02"/><line class="cls-1" x1="25.02" y1="4.96" x2="25.02" y2="-.04"/><line class="cls-1" x1="0" y1="25" x2="5.01" y2="25"/><path class="cls-2" d="m45.04,25c0,10.98-9.04,20.02-20.02,20.02S5,35.99,5,25"/></g></svg>