<?xml version="1.0" encoding="UTF-8"?><svg id="Layer_1" xmlns="http://www.w3.org/2000/svg" viewBox="0 0 30 30"><defs><style>.cls-1{stroke-linecap:square;}.cls-1,.cls-2{fill:none;stroke:#231f20;stroke-miterlimit:10;}</style></defs><g><path class="cls-2" d="m5.01,14.86c-.06,5.58,4.57,10.12,10,10"/><path class="cls-2" d="m25.01,14.86c.06-5.58-4.57-10.12-10-10"/><path class="cls-2" d="m15.01,24.86c5.58.06,10.12-4.57,10-10"/><circle class="cls-2" cx="8.01" cy="7.86" r="1"/></g><g><path class="cls-2" d="m21.92,7.66c3.91,3.91,3.9,10.26-.02,14.18-3.92,3.92-10.27,3.93-14.18.02"/><line class="cls-2" x1="25.64" y1="25.57" x2="21.91" y2="21.84"/></g><g><path class="cls-2" d="m15.01,5c5.49,0,10,4.51,10,10s-4.51,10-10,10"/><path class="cls-2" d="m25.01,15c0,5.49-4.51,10-10,10-5.49,0-10-4.51-10-10"/><line class="cls-1" x1="15.01" y1="5" x2="15.01" y2=".1"/><line class="cls-1" x1=".05" y1="14.96" x2="5.05" y2="14.96"/></g></svg>