<?xml version="1.0" encoding="UTF-8"?><svg id="Layer_1" xmlns="http://www.w3.org/2000/svg" viewBox="0 0 60 60"><defs><style>.cls-1{stroke-linecap:square;}.cls-1,.cls-2{fill:none;stroke:#231f20;stroke-miterlimit:10;}</style></defs><g><path class="cls-2" d="m5.01,29.86c-.16,13.95,11.41,25.3,25,25"/><path class="cls-2" d="m30.01,54.86c13.95.16,25.3-11.41,25-25"/><path class="cls-2" d="m55,29.87c.16-13.95-11.41-25.3-25-25"/><circle class="cls-2" cx="12.51" cy="12.36" r="2.5"/></g><g><path class="cls-2" d="m47.33,12.01c9.92,9.92,10.06,25.87.31,35.62-9.75,9.75-25.7,9.61-35.62-.31"/><line class="cls-2" x1="51.34" y1="51.11" x2="47.56" y2="47.34"/></g><g><path class="cls-2" d="m29.98,4.99c13.72,0,25.01,11.29,25.01,25.01s-11.29,25.01-25.01,25.01"/><line class="cls-1" x1="30.01" y1="4.98" x2="30.01" y2="-.02"/><line class="cls-1" x1="0" y1="30.04" x2="5.01" y2="30.04"/><path class="cls-2" d="m54.99,30c0,13.72-11.29,25.01-25.01,25.01S4.98,43.72,4.98,30"/></g></svg>