<?xml version="1.0" encoding="UTF-8"?><svg id="Layer_1" xmlns="http://www.w3.org/2000/svg" viewBox="0 0 20 20"><defs><style>.cls-1{fill:none;stroke:#231f20;stroke-miterlimit:10;}</style></defs><g><path class="cls-1" d="m5.01,9.86c-.03,2.79,2.28,5.06,5,5"/><path class="cls-1" d="m15.01,9.86c.03-2.79-2.28-5.06-5-5"/><circle class="cls-1" cx="6.51" cy="6.36" r=".5"/><path class="cls-1" d="m10.01,14.86c2.79.03,5.06-2.28,5-5"/></g><g><path class="cls-1" d="m13.7,6.59c1.88,1.88,1.83,4.98-.12,6.92s-5.04,1.99-6.92.12"/><line class="cls-1" x1="17.06" y1="16.98" x2="13.34" y2="13.26"/></g><g><path class="cls-1" d="m10.01,5c2.74,0,5,2.26,5,5s-2.26,5-5,5"/><line class="cls-1" x1="10.01" y1="5.48" x2="10" y2="-.04"/><line class="cls-1" x1="0" y1="10" x2="5.51" y2="10"/><path class="cls-1" d="m15.01,10c0,2.74-2.26,5-5,5s-5-2.26-5-5"/></g></svg>