<?xml version="1.0" encoding="UTF-8"?><svg id="Layer_1" xmlns="http://www.w3.org/2000/svg" viewBox="0 0 70 70"><defs><style>.cls-1{stroke-linecap:square;}.cls-1,.cls-2{fill:none;stroke:#231f20;stroke-miterlimit:10;}</style></defs><g><path class="cls-2" d="m4.91,34.97c-.19,16.8,13.75,30.47,30.1,30.11"/><path class="cls-2" d="m65.11,34.98c.19-16.8-13.75-30.47-30.1-30.11"/><circle class="cls-2" cx="13.94" cy="13.89" r="3.01"/><path class="cls-2" d="m35.01,65.08c16.8.19,30.47-13.75,30.11-30.1"/></g><g><path class="cls-2" d="m56.25,13.89c11.75,11.75,11.8,30.75.12,42.43-11.68,11.68-30.68,11.63-42.43-.12"/><line class="cls-2" x1="60.02" y1="59.75" x2="56.3" y2="56.03"/></g><g><path class="cls-2" d="m34.98,4.95c16.47,0,30.02,13.55,30.02,30.02s-13.55,30.02-30.02,30.02"/><line class="cls-1" x1="35.02" y1="4.95" x2="35.02" y2="-.05"/><line class="cls-1" x1="-.06" y1="34.97" x2="4.94" y2="34.97"/><path class="cls-2" d="m65.01,34.97c0,16.47-13.55,30.02-30.02,30.02-16.47,0-30.02-13.55-30.02-30.02"/></g></svg>