<?xml version="1.0" encoding="UTF-8"?><svg id="Layer_1" xmlns="http://www.w3.org/2000/svg" viewBox="0 0 40 40"><defs><style>.cls-1{stroke-linecap:square;}.cls-1,.cls-2{fill:none;stroke:#231f20;stroke-miterlimit:10;}</style></defs><g><path class="cls-2" d="m5.02,19.73c-.09,8.36,6.84,15.16,14.98,14.98"/><path class="cls-2" d="m34.97,19.73c.09-8.36-6.84-15.16-14.98-14.98"/><path class="cls-2" d="m20,34.71c8.36.09,15.16-6.84,14.98-14.98"/><circle class="cls-2" cx="9.51" cy="9.24" r="1.5"/></g><g><path class="cls-2" d="m30.78,9.19c5.82,5.82,5.76,15.3-.12,21.18s-15.37,5.94-21.18.12"/><line class="cls-2" x1="34.26" y1="34" x2="30.54" y2="30.28"/></g><g><path class="cls-2" d="m20.02,5c8.23,0,15,6.77,15,15s-6.77,15-15,15"/><line class="cls-1" x1="20.02" y1="4.99" x2="20.02" y2="-.01"/><line class="cls-1" x1=".01" y1="20.04" x2="5.01" y2="20.04"/><path class="cls-2" d="m35.02,20c0,8.23-6.77,15-15,15-8.23,0-15-6.77-15-15"/></g></svg>