<?xml version="1.0" encoding="UTF-8"?><svg id="Layer_1" xmlns="http://www.w3.org/2000/svg" viewBox="0 0 20 20"><defs><style>.cls-1{fill:none;stroke:#231f20;stroke-miterlimit:10;}</style></defs><g><path class="cls-1" d="m5.08,9.97c-.03,2.79,2.28,5.06,5,5"/><path class="cls-1" d="m15.08,9.97c.03-2.79-2.28-5.06-5-5"/><circle class="cls-1" cx="6.58" cy="6.47" r=".5"/><path class="cls-1" d="m10.08,14.97c2.79.03,5.06-2.28,5-5"/></g><g><path class="cls-1" d="m10.08,5.08c2.74,0,5,2.26,5,5s-2.26,5-5,5"/><path class="cls-1" d="m15.08,10.08c0,2.74-2.26,5-5,5s-5-2.26-5-5"/></g><g><path class="cls-1" d="m9.96,5.02c2.74,0,5,2.26,5,5s-2.26,5-5,5"/><path class="cls-1" d="m14.96,10.02c0,2.74-2.26,5-5,5s-5-2.26-5-5"/></g><path class="cls-1" d="m11.4,15.27c.98.98,2.6.98,3.59,0s.98-2.6,0-3.59"/></svg>