<?xml version="1.0" encoding="UTF-8"?><svg id="Layer_1" xmlns="http://www.w3.org/2000/svg" viewBox="0 0 40 40"><defs><style>.cls-1{fill:none;stroke:#231f20;stroke-miterlimit:10;}</style></defs><g><path class="cls-1" d="m5.1,19.84c-.09,8.36,6.84,15.16,14.98,14.98"/><path class="cls-1" d="m35.05,19.84c.09-8.36-6.84-15.16-14.98-14.98"/><path class="cls-1" d="m20.07,34.82c8.36.09,15.16-6.84,14.98-14.98"/><circle class="cls-1" cx="9.59" cy="9.35" r="1.5"/></g><g><path class="cls-1" d="m20.1,5.09c8.23,0,15,6.77,15,15s-6.77,15-15,15"/><path class="cls-1" d="m35.09,20.09c0,8.23-6.77,15-15,15s-15-6.77-15-15"/></g><g><path class="cls-1" d="m19.97,5.02c8.23,0,15,6.77,15,15s-6.77,15-15,15"/><path class="cls-1" d="m34.97,20.02c0,8.23-6.77,15-15,15-8.23,0-15-6.77-15-15"/></g><path class="cls-1" d="m29.16,32.22c.98.98,2.6.98,3.59,0s.98-2.6,0-3.59"/></svg>