<?xml version="1.0" encoding="UTF-8"?><svg id="Layer_1" xmlns="http://www.w3.org/2000/svg" viewBox="0 0 60 60"><defs><style>.cls-1{fill:none;stroke:#231f20;stroke-miterlimit:10;}</style></defs><g><path class="cls-1" d="m5.09,29.97c-.16,13.95,11.41,25.3,25,25"/><path class="cls-1" d="m30.08,54.97c13.95.16,25.3-11.41,25-25"/><path class="cls-1" d="m55.08,29.98c.16-13.95-11.41-25.3-25-25"/><circle class="cls-1" cx="12.59" cy="12.47" r="2.5"/></g><g><path class="cls-1" d="m30.06,5.07c13.72,0,25.01,11.29,25.01,25.01s-11.29,25.01-25.01,25.01"/><path class="cls-1" d="m55.07,30.08c0,13.72-11.29,25.01-25.01,25.01S5.05,43.8,5.05,30.08"/></g><g><path class="cls-1" d="m29.94,5.01c13.72,0,25.01,11.29,25.01,25.01s-11.29,25.01-25.01,25.01"/><path class="cls-1" d="m54.94,30.02c0,13.72-11.29,25.01-25.01,25.01S4.93,43.74,4.93,30.02"/></g><path class="cls-1" d="m46.49,48.38c.98.98,2.6.98,3.59,0s.98-2.6,0-3.59"/></svg>