<?xml version="1.0" encoding="UTF-8"?><svg id="Layer_1" xmlns="http://www.w3.org/2000/svg" viewBox="0 0 70 70"><defs><style>.cls-1{fill:none;stroke:#231f20;stroke-miterlimit:10;}</style></defs><g><path class="cls-1" d="m4.98,35.02c-.19,16.8,13.75,30.47,30.1,30.11"/><path class="cls-1" d="m65.19,35.03c.19-16.8-13.75-30.47-30.1-30.11"/><circle class="cls-1" cx="14.01" cy="13.94" r="3.01"/><path class="cls-1" d="m35.08,65.13c16.8.19,30.47-13.75,30.11-30.1"/></g><g><path class="cls-1" d="m35.06,4.98c16.47,0,30.02,13.55,30.02,30.02s-13.55,30.02-30.02,30.02"/><path class="cls-1" d="m65.08,35c0,16.47-13.55,30.02-30.02,30.02S5.04,51.47,5.04,35"/></g><g><path class="cls-1" d="m34.94,4.91c16.47,0,30.02,13.55,30.02,30.02s-13.55,30.02-30.02,30.02"/><path class="cls-1" d="m64.96,34.94c0,16.47-13.55,30.02-30.02,30.02-16.47,0-30.02-13.55-30.02-30.02"/></g><path class="cls-1" d="m54.63,57.88c.98.98,2.6.98,3.59,0s.98-2.6,0-3.59"/></svg>