<?xml version="1.0" encoding="UTF-8"?><svg id="Layer_1" xmlns="http://www.w3.org/2000/svg" viewBox="0 0 30 30"><defs><style>.cls-1{fill:none;stroke:#231f20;stroke-miterlimit:10;}</style></defs><g><path class="cls-1" d="m4.96,14.96c-.06,5.58,4.57,10.12,10,10"/><path class="cls-1" d="m24.96,14.96c.06-5.58-4.57-10.12-10-10"/><path class="cls-1" d="m14.96,24.96c5.58.06,10.12-4.57,10-10"/><circle class="cls-1" cx="7.96" cy="7.96" r="1"/></g><g><path class="cls-1" d="m15.08,5.07c5.49,0,10,4.51,10,10s-4.51,10-10,10"/><path class="cls-1" d="m25.09,15.07c0,5.49-4.51,10-10,10s-10-4.51-10-10"/></g><g><path class="cls-1" d="m14.96,5c5.49,0,10,4.51,10,10s-4.51,10-10,10"/><path class="cls-1" d="m24.96,15c0,5.49-4.51,10-10,10-5.49,0-10-4.51-10-10"/></g><path class="cls-1" d="m23.53,19.61c-.98-.98-2.6-.98-3.59,0-.98.98-.98,2.6,0,3.59"/></svg>