<?xml version="1.0" encoding="UTF-8"?><svg id="Layer_1" xmlns="http://www.w3.org/2000/svg" viewBox="0 0 50 50"><defs><style>.cls-1{fill:none;stroke:#231f20;stroke-miterlimit:10;}</style></defs><g><path class="cls-1" d="m4.98,24.96c-.13,11.16,9.13,20.24,20,20"/><path class="cls-1" d="m44.97,24.96c.13-11.16-9.13-20.24-20-20"/><path class="cls-1" d="m24.97,44.96c11.16.13,20.24-9.13,20-20"/><circle class="cls-1" cx="10.98" cy="10.95" r="2"/></g><g><path class="cls-1" d="m25.07,5.04c10.98,0,20.02,9.04,20.02,20.02s-9.04,20.02-20.02,20.02"/><path class="cls-1" d="m45.12,25.07c0,10.98-9.04,20.02-20.02,20.02-10.98,0-20.02-9.04-20.02-20.02"/></g><g><path class="cls-1" d="m24.95,4.98c10.98,0,20.02,9.04,20.02,20.02s-9.04,20.02-20.02,20.02"/><path class="cls-1" d="m45,25c0,10.98-9.04,20.02-20.02,20.02S4.95,35.99,4.95,25"/></g><path class="cls-1" d="m41.21,36.48c-.98-.98-2.6-.98-3.59,0s-.98,2.6,0,3.59"/></svg>