<?xml version="1.0" encoding="UTF-8"?><svg id="Layer_1" xmlns="http://www.w3.org/2000/svg" viewBox="0 0 60 60"><defs><style>.cls-1{fill:none;stroke:#231f20;stroke-miterlimit:10;}</style></defs><g><path class="cls-1" d="m4.97,29.96c-.16,13.95,11.41,25.3,25,25"/><path class="cls-1" d="m29.96,54.96c13.95.16,25.3-11.41,25-25"/><path class="cls-1" d="m54.96,29.96c.16-13.95-11.41-25.3-25-25"/><circle class="cls-1" cx="12.46" cy="12.45" r="2.5"/></g><g><path class="cls-1" d="m30.06,5.05c13.72,0,25.01,11.29,25.01,25.01s-11.29,25.01-25.01,25.01"/><path class="cls-1" d="m55.07,30.06c0,13.72-11.29,25.01-25.01,25.01S5.05,43.78,5.05,30.06"/></g><g><path class="cls-1" d="m29.94,4.99c13.72,0,25.01,11.29,25.01,25.01s-11.29,25.01-25.01,25.01"/><path class="cls-1" d="m54.94,30c0,13.72-11.29,25.01-25.01,25.01S4.93,43.72,4.93,30"/></g><path class="cls-1" d="m49.71,44.72c-.98-.98-2.6-.98-3.59,0s-.98,2.6,0,3.59"/></svg>